<svg id="Layer_1" data-name="Layer 1" xmlns="http://www.w3.org/2000/svg" viewBox="0 0 512 512"><defs><style>.cls-1{fill:#dde5e8;}.cls-2{fill:#9bbdc6;}.cls-3{fill:#afc3c9;}.cls-4{fill:#e04848;}.cls-5{fill:#9e2d2d;}</style></defs><title>document-x-flat</title><path class="cls-1" d="M422.4,153.6V448a64,64,0,0,1-64,64H76.8a64,64,0,0,1-64-64V64a64,64,0,0,1,64-64H268.93Z"/><path class="cls-2" d="M422.4,153.6H332.8a64,64,0,0,1-64-64V0h.13Z"/><path class="cls-3" d="M204.8,268.8A12.8,12.8,0,0,1,192,281.6H115.2a12.8,12.8,0,0,1-12.8-12.8h0A12.8,12.8,0,0,1,115.2,256H192a12.8,12.8,0,0,1,12.8,12.8Z"/><path class="cls-3" d="M281.6,320a12.8,12.8,0,0,1-12.8,12.8H115.2A12.8,12.8,0,0,1,102.4,320h0a12.8,12.8,0,0,1,12.8-12.8H268.8A12.8,12.8,0,0,1,281.6,320Z"/><path class="cls-3" d="M281.22,371.2a12.8,12.8,0,0,1-12.8,12.8H115.2a12.8,12.8,0,0,1-12.8-12.8h0a12.8,12.8,0,0,1,12.8-12.8H268.42a12.8,12.8,0,0,1,12.8,12.8Z"/><circle class="cls-4" cx="409.6" cy="422.4" r="89.6"/><path class="cls-5" d="M427.7,422.4l16.55-16.55a12.8,12.8,0,0,0-18.1-18.1L409.6,404.3l-16.55-16.55a12.8,12.8,0,0,0-18.1,18.1L391.5,422.4l-16.55,16.55a12.8,12.8,0,1,0,18.1,18.1L409.6,440.5l16.55,16.55a12.8,12.8,0,1,0,18.1-18.1Z"/></svg>