<?xml version="1.0" encoding="iso-8859-1"?>
<!-- Generator: Adobe Illustrator 19.1.1, SVG Export Plug-In . SVG Version: 6.00 Build 0)  -->
<svg version="1.1" id="Layer_1" xmlns="http://www.w3.org/2000/svg" xmlns:xlink="http://www.w3.org/1999/xlink" x="0px" y="0px"
	 viewBox="0 0 40 40" style="enable-background:new 0 0 40 40;" xml:space="preserve">
<g>
	<path style="fill:#E1EBF2;" d="M7,38.5c-2.481,0-4.5-2.019-4.5-4.5V5.5h13V34c0,1.858,0.926,3.504,2.341,4.5H7z"/>
	<g>
		<path style="fill:#788B9C;" d="M15,6v28c0,1.535,0.58,2.938,1.532,4H7c-2.206,0-4-1.794-4-4V6H15 M16,5H2v29c0,2.761,2.239,5,5,5
			h14c-2.761,0-5-2.239-5-5V5L16,5z"/>
	</g>
</g>
<g>
	<path style="fill:#FFFFFF;" d="M7.5,38.5v-0.027c2.247-0.25,4-2.16,4-4.473V1.5h26V34c0,2.481-2.019,4.5-4.5,4.5H7.5z"/>
	<path style="fill:#788B9C;" d="M37,2v32c0,2.206-1.794,4-4,4H9.997C11.212,37.087,12,35.634,12,34V2H37 M38,1H11v33
		c0,2.209-1.791,4-4,4v1h26c2.761,0,5-2.239,5-5V1L38,1z"/>
</g>
<rect x="16" y="6" style="fill:#788B9C;" width="17" height="3"/>
<rect x="26" y="12" style="fill:#788B9C;" width="7" height="1"/>
<rect x="26" y="15" style="fill:#788B9C;" width="7" height="1"/>
<rect x="26" y="18" style="fill:#788B9C;" width="7" height="1"/>
<rect x="6" y="11" style="fill:#788B9C;" width="5" height="1"/>
<rect x="6" y="14" style="fill:#788B9C;" width="5" height="1"/>
<rect x="6" y="17" style="fill:#788B9C;" width="5" height="1"/>
<rect x="6" y="20" style="fill:#788B9C;" width="5" height="1"/>
<rect x="6" y="23" style="fill:#788B9C;" width="5" height="1"/>
<rect x="6" y="26" style="fill:#788B9C;" width="5" height="1"/>
<rect x="6" y="29" style="fill:#788B9C;" width="5" height="1"/>
<rect x="6" y="32" style="fill:#788B9C;" width="5" height="1"/>
<rect x="16" y="12" style="fill:#788B9C;" width="7" height="1"/>
<rect x="16" y="15" style="fill:#788B9C;" width="7" height="1"/>
<rect x="16" y="18" style="fill:#788B9C;" width="7" height="1"/>
<rect x="16" y="21" style="fill:#788B9C;" width="7" height="1"/>
<rect x="16" y="24" style="fill:#788B9C;" width="7" height="1"/>
<rect x="16" y="27" style="fill:#788B9C;" width="7" height="1"/>
<rect x="16" y="30" style="fill:#788B9C;" width="7" height="1"/>
<rect x="16" y="33" style="fill:#788B9C;" width="7" height="1"/>
<path style="fill:#FFFFFF;" d="M38,34c0,0-3.134,4-7,4s-7-3.134-7-7s3.134-7,7-7s7,5,7,5V34z"/>
<g>
	<path style="fill:#C5D4DE;" d="M22.059,30h-1.008C21.018,30.329,21,30.662,21,31h1C22,30.662,22.022,30.329,22.059,30z"/>
	<path style="fill:#C5D4DE;" d="M37,23.019V34c0.359,0.322,0.696,0.668,1,1.044V23.871C37.687,23.564,37.35,23.283,37,23.019z"/>
	<path style="fill:#C5D4DE;" d="M21.461,28h1.062c0.122-0.344,0.263-0.677,0.424-1h-1.106C21.698,27.325,21.569,27.658,21.461,28z"
		/>
	<path style="fill:#C5D4DE;" d="M25.349,38h-1.478c0.357,0.364,0.746,0.694,1.155,1h1.864C26.341,38.718,25.824,38.384,25.349,38z"
		/>
	<path style="fill:#C5D4DE;" d="M22.523,34c-0.115-0.326-0.215-0.658-0.292-1h-1.029c0.069,0.34,0.157,0.673,0.26,1H22.523z"/>
</g>
<g>
	<g>
		<path style="fill:#8BB7F0;" d="M31,39.5c-4.687,0-8.5-3.813-8.5-8.5s3.813-8.5,8.5-8.5c2.264,0,4.396,0.887,6.003,2.497
			l0.354,0.354l2.143-2.144V29.5h-6.293l2.024-2.024l-0.353-0.354C33.835,26.076,32.458,25.5,31,25.5c-3.032,0-5.5,2.467-5.5,5.5
			s2.468,5.5,5.5,5.5c2.071,0,3.958-1.167,4.895-3h3.226C38.033,37.063,34.779,39.5,31,39.5z"/>
	</g>
	<g>
		<path style="fill:#4E7AB5;" d="M31,23c2.131,0,4.137,0.835,5.649,2.35l0.707,0.709l0.708-0.708L39,24.414V29h-4.586l0.817-0.817
			l0.706-0.706l-0.705-0.707C34.094,25.629,32.591,25,31,25c-3.308,0-6,2.692-6,6s2.692,6,6,6c2.155,0,4.127-1.158,5.191-3h2.223
			c-1.199,2.998-4.091,5-7.414,5c-4.411,0-8-3.589-8-8S26.589,23,31,23 M40,22l-2.643,2.643C35.73,23.013,33.486,22,31,22
			c-4.971,0-9,4.029-9,9s4.029,9,9,9c4.282,0,7.859-2.993,8.769-7h-4.191c-0.772,1.764-2.529,3-4.578,3c-2.761,0-5-2.239-5-5
			s2.239-5,5-5c1.381,0,2.621,0.57,3.524,1.476L32,30h8V22L40,22z"/>
	</g>
</g>
</svg>
